<svg width="2702" height="524" xmlns="http://www.w3.org/2000/svg" xmlns:xlink="http://www.w3.org/1999/xlink" overflow="hidden"><defs><clipPath id="clip0"><rect x="850" y="568" width="2702" height="524"/></clipPath></defs><g clip-path="url(#clip0)" transform="translate(-850 -568)"><path d="M2690 688.973C2690 629.893 2737.89 582 2796.97 582L2973.03 582C3032.11 582 3080 629.893 3080 688.973L3080 865.027C3080 924.107 3032.11 972 2973.03 972L2796.97 972C2737.89 972 2690 924.107 2690 865.027Z" fill="#FEF9EF" fill-rule="evenodd"/><path d="M2947.41 850.311C2924.52 820.9 2913.07 794.046 2911.22 761.654L2941.14 761.654 2941.14 734.375 2923.78 727.983C2929.32 719.031 2932.27 707.95 2932.27 696.869 2932.27 667.887 2912.33 647 2884.63 647 2856.93 647 2836.99 667.886 2836.99 696.869 2836.99 708.378 2839.94 719.034 2845.48 727.983L2828.49 734.375 2828.49 761.654 2858.41 761.654C2856.19 793.622 2845.11 820.475 2822.22 850.311L2820 853.296 2820 907 2950 907 2950 852.868Z" fill="#FFCB77" fill-rule="evenodd"/><path d="M2690 688.973C2690 629.893 2737.89 582 2796.97 582L2973.03 582C3032.11 582 3080 629.893 3080 688.973L3080 865.027C3080 924.107 3032.11 972 2973.03 972L2796.97 972C2737.89 972 2690 924.107 2690 865.027Z" stroke="#FFCB77" stroke-width="27.5" stroke-miterlimit="8" fill="none" fill-rule="evenodd"/><path d="M864 688.973C864 629.893 911.893 582 970.973 582L1147.03 582C1206.11 582 1254 629.893 1254 688.973L1254 865.027C1254 924.107 1206.11 972 1147.03 972L970.973 972C911.893 972 864 924.107 864 865.027Z" fill="#FEF9EF" fill-rule="evenodd"/><path d="M1150 777 1067.27 836.091 1104.5 907 968 855 968 699 1104.5 647 1067.27 717.909Z" fill="#FE6D73" fill-rule="evenodd"/><path d="M864 688.973C864 629.893 911.893 582 970.973 582L1147.03 582C1206.11 582 1254 629.893 1254 688.973L1254 865.027C1254 924.107 1206.11 972 1147.03 972L970.973 972C911.893 972 864 924.107 864 865.027Z" stroke="#FE6D73" stroke-width="27.5" stroke-miterlimit="8" fill="none" fill-rule="evenodd"/><path d="M1320 688.973C1320 629.893 1367.89 582 1426.97 582L1603.03 582C1662.11 582 1710 629.893 1710 688.973L1710 865.027C1710 924.107 1662.11 972 1603.03 972L1426.97 972C1367.89 972 1320 924.107 1320 865.027Z" fill="#FEF9EF" fill-rule="evenodd"/><text fill="#262626" font-family="Hammersmith One,Hammersmith One_MSFontService,sans-serif" font-weight="400" font-size="248" transform="matrix(1 0 0 1 1432.43 860)">U</text><path d="M1777 688.973C1777 629.893 1824.89 582 1883.97 582L2060.03 582C2119.11 582 2167 629.893 2167 688.973L2167 865.027C2167 924.107 2119.11 972 2060.03 972L1883.97 972C1824.89 972 1777 924.107 1777 865.027Z" fill="#FEF9EF" fill-rule="evenodd"/><text fill="#262626" font-family="Hammersmith One,Hammersmith One_MSFontService,sans-serif" font-weight="400" font-size="248" transform="matrix(1 0 0 1 1889.52 860)">N</text><path d="M2233 688.973C2233 629.893 2280.89 582 2339.97 582L2516.03 582C2575.11 582 2623 629.893 2623 688.973L2623 865.027C2623 924.107 2575.11 972 2516.03 972L2339.97 972C2280.89 972 2233 924.107 2233 865.027Z" fill="#FEF9EF" fill-rule="evenodd"/><text fill="#262626" font-family="Hammersmith One,Hammersmith One_MSFontService,sans-serif" font-weight="400" font-size="248" transform="matrix(1 0 0 1 2345.76 860)">D</text><path d="M3146 688.973C3146 629.893 3193.89 582 3252.97 582L3429.03 582C3488.11 582 3536 629.893 3536 688.973L3536 865.027C3536 924.107 3488.11 972 3429.03 972L3252.97 972C3193.89 972 3146 924.107 3146 865.027Z" fill="#FEF9EF" fill-rule="evenodd"/><text fill="#262626" font-family="Hammersmith One,Hammersmith One_MSFontService,sans-serif" font-weight="400" font-size="248" transform="matrix(1 0 0 1 3279.44 860)">E</text></g></svg>